<?xml version="1.0" encoding="utf-8"?>
<!-- Generator: Adobe Illustrator 22.0.1, SVG Export Plug-In . SVG Version: 6.00 Build 0)  -->
<svg version="1.1" id="Layer_1" xmlns="http://www.w3.org/2000/svg" xmlns:xlink="http://www.w3.org/1999/xlink" x="0px" y="0px"
	 viewBox="0 0 126 126" style="enable-background:new 0 0 126 126;" xml:space="preserve">
<style type="text/css">
	.st0{fill:#DEDEDE;}
	.st1{fill:#EAEAEA;}
	.st2{fill:#FFFFFF;}
	.st3{fill:#3899C5;}
	.st4{fill:#58B6DA;}
	.st5{fill:#1881CE;}
	.st6{fill:#0271C5;}
	.st7{fill:#797979;}
</style>
<g>
	<title>a3g-logo</title>
	<path id="path9" class="st0" d="M63,0C28.2,0,0,28.2,0,63s28.2,63,63,63s63-28.2,63-63S97.8,0,63,0z M63,122.1
		C30.4,122.1,3.9,95.6,3.9,63S30.4,3.9,63,3.9s59.1,26.5,59.1,59.1S95.7,122.1,63,122.1L63,122.1z"/>
	<circle id="circle11" class="st1" cx="63" cy="63" r="59.1"/>
	<polygon id="polygon13" class="st0" points="52.6,44.2 59.7,48.2 63,50 63,47.3 63,7.9 	"/>
	<polygon id="polygon15" class="st0" points="66.3,77.8 63.3,76.1 63,76 63,76.3 63,78.8 63,118.1 73.4,81.8 	"/>
	<polygon id="polygon17" class="st2" points="73.4,44.2 66.3,48.2 63,50 63,47.3 63,7.9 	"/>
	<polygon id="polygon19" class="st2" points="59.7,77.8 62.7,76.1 63,76 63,76.3 63,78.8 63,118.1 52.6,81.8 	"/>
	<polygon id="polygon21" class="st0" points="44.2,73.4 48.2,66.3 50,63 47.3,63 7.9,63 	"/>
	<polygon id="polygon23" class="st0" points="77.8,59.7 76.1,62.7 76,63 76.3,63 78.8,63 118.1,63 81.8,52.6 	"/>
	<polygon id="polygon25" class="st2" points="44.2,52.6 48.2,59.7 50,63 47.3,63 7.9,63 	"/>
	<polygon id="polygon27" class="st2" points="77.8,66.3 76.1,63.3 76,63 76.3,63 78.8,63 118.1,63 81.8,73.4 	"/>
	<polygon id="polygon29" class="st0" points="33.8,33.8 50,63 50.2,63 63,63 	"/>
	<polygon id="polygon31" class="st2" points="33.8,92.2 50,63 50.2,63 63,63 	"/>
	<polygon id="polygon33" class="st0" points="33.8,92.2 63,76 63,75.8 63,63 	"/>
	<polygon id="polygon35" class="st2" points="92.2,92.2 63,76 63,75.8 63,63 	"/>
	<polygon id="polygon37" class="st0" points="92.2,92.2 76,63 75.8,63 63,63 	"/>
	<polygon id="polygon39" class="st2" points="92.2,33.8 76,63 75.8,63 63,63 	"/>
	<polygon id="polygon41" class="st0" points="92.2,33.8 63,50 63,50.2 63,63 	"/>
	<polygon id="polygon43" class="st2" points="33.8,33.8 63,50 63,50.2 63,63 	"/>
	<polygon id="polygon45" class="st3" points="55.1,55.1 24.2,102.1 70.9,70.9 102.1,24.2 	"/>
	<polygon id="polygon47" class="st4" points="24.2,102.1 70.9,70.9 63.2,63.2 	"/>
	<polygon id="polygon49" class="st5" points="102.1,24.2 55.1,55.1 63.2,63.2 	"/>
	<polygon id="polygon51" class="st6" points="102.1,24.2 70.9,70.9 62.8,62.8 	"/>
	<circle id="circle53" class="st7" cx="63" cy="63" r="3.9"/>
</g>
</svg>
