<?xml version="1.0" encoding="utf-8"?>
<!-- Generator: Adobe Illustrator 22.0.1, SVG Export Plug-In . SVG Version: 6.00 Build 0)  -->
<svg version="1.1" id="Layer_1" xmlns="http://www.w3.org/2000/svg" xmlns:xlink="http://www.w3.org/1999/xlink" x="0px" y="0px"
	 viewBox="0 0 140 140" style="enable-background:new 0 0 140 140;" xml:space="preserve">
<style type="text/css">
	.st0{fill:#0072C6;}
	.st1{opacity:0.17;fill:#FFFFFF;enable-background:new    ;}
	.st2{opacity:0.72;fill:#FFFFFF;enable-background:new    ;}
	.st3{opacity:0.28;fill:#FFFFFF;enable-background:new    ;}
	.st4{opacity:0.86;fill:#FFFFFF;enable-background:new    ;}
	.st5{opacity:0.31;fill:#FFFFFF;enable-background:new    ;}
	.st6{opacity:0.63;fill:#FFFFFF;enable-background:new    ;}
	.st7{fill:#1B348E;}
	.st8{opacity:0.59;fill:#FFFFFF;enable-background:new    ;}
</style>
<title>Artboard 30</title>
<g id="_1180_Grids">
	<g>
		<polyline class="st0" points="36.7,1.9 133.1,34.9 133.1,82 114.3,137.3 8.2,116 36.7,1.9 		"/>
		<path class="st1" d="M114.3,137.3c-0.4-1,0-71.3,0-71.3l18.8,16L114.3,137.3z"/>
		<polygon class="st2" points="133.1,34.9 133.1,82 114.3,66 		"/>
		<polygon class="st2" points="36.7,1.9 133.1,34.9 114.3,66 		"/>
		<polygon class="st3" points="43.3,56.3 114.3,66 8.2,116 		"/>
		<polygon class="st4" points="43.3,56.3 36.7,1.9 114.3,66 		"/>
		<polygon class="st5" points="114.3,66 133.1,34.9 99.8,23.4 		"/>
		<polygon class="st6" points="8.2,116 80,119.2 114.3,66 		"/>
		<polygon class="st0" points="114.3,137.3 80,119.2 114.3,66 		"/>
		<polygon class="st7" points="8.2,116 114.3,137.3 80,119.2 		"/>
		<polygon class="st8" points="43.3,56.3 8.2,116 36.7,1.9 		"/>
	</g>
</g>
</svg>
