<?xml version="1.0" encoding="utf-8"?>
<!-- Generator: Adobe Illustrator 22.0.1, SVG Export Plug-In . SVG Version: 6.00 Build 0)  -->
<svg version="1.1" id="Layer_1" xmlns="http://www.w3.org/2000/svg" xmlns:xlink="http://www.w3.org/1999/xlink" x="0px" y="0px"
	 viewBox="0 0 400 140" style="enable-background:new 0 0 400 140;" xml:space="preserve">
<style type="text/css">
	.st0{fill:#59B4D9;}
	.st1{fill:#0399C6;}
	.st2{fill:#804998;}
	.st3{opacity:0.15;fill:#FFFFFF;enable-background:new    ;}
	.st4{opacity:0.2;fill:#00188F;enable-background:new    ;}
	.st5{opacity:0.2;fill:#1E1E1E;enable-background:new    ;}
</style>
<g>
	<ellipse class="st0" cx="173.8" cy="13.1" rx="35.6" ry="13.1"/>
	<path class="st1" d="M188.1,80.5c-4.6,0.7-9.6,1.1-14.3,1.1c-13.5,0-27.4-2.8-35.6-8.8c0,6.7,0,13.1,0,14.9
		c0,7.8,15.9,14.2,35.6,14.2c5.1,0,9.9-0.4,14.3-1.2V80.5z"/>
	<path class="st1" d="M188.1,54.5c-4.6,0.7-9.6,1.1-14.3,1.1c-13.5,0-27.4-2.8-35.6-8.8c0,7.4,0,12.7,0,19.6
		c5.7,6.9,21.1,10.6,35.6,10.6c4.8,0,9.7-0.4,14.3-1.2V54.5z"/>
	<path class="st1" d="M209.5,36.1c0-11.3,0-14.7,0-14.7l0,0c-7.3,6.2-21.4,9.6-35.6,9.6c-14.2,0-28.5-3.4-35.8-9.6l0,0
		c0,0,0,4.1,0,18.9c5.7,6.9,21.1,10.6,35.6,10.6c4.8,0,9.7-0.4,14.3-1.2C188.6,42.7,197.7,38.2,209.5,36.1z"/>
	<path class="st2" d="M190.4,104.6c5.7,6.9,21.1,10.6,35.6,10.6s29.9-3.7,35.6-10.6c0-6.7,0-12,0-19.6c-8.1,6-22.3,8.8-35.6,8.8
		S198.5,91,190.4,85C190.4,92.6,190.4,97.7,190.4,104.6z"/>
	<path class="st2" d="M226.2,119.8c-13.5,0-27.4-2.8-35.6-8.8c0,6.7,0,13.1,0,14.9c0,7.8,15.9,14.2,35.6,14.2s35.6-6.4,35.6-14.2
		c0-1.4,0-7.8,0-14.9C253.6,117,239.4,119.8,226.2,119.8z"/>
	<ellipse class="st2" cx="226.2" cy="51.3" rx="35.6" ry="13.1"/>
	<ellipse class="st3" cx="226.2" cy="51.3" rx="35.6" ry="13.1"/>
	<path class="st2" d="M190.4,78.6c5.7,6.9,21.1,10.6,35.6,10.6s29.9-3.7,35.6-10.6c0-14.9,0-18.9,0-18.9l0,0
		c-7.3,6.2-21.4,9.6-35.6,9.6s-28.3-3.2-35.6-9.6l0,0C190.4,59.6,190.4,63.7,190.4,78.6z"/>
	<path class="st4" d="M172.9,81.6v20.2c0.4,0,0.7,0,0.9,0c5.1,0,9.9-0.4,14.3-1.2v-20c-4.6,0.7-9.6,1.1-14.3,1.1
		C173.6,81.6,173.2,81.6,172.9,81.6z"/>
	<path class="st4" d="M172.9,55.6v21.2c0.4,0,0.7,0,0.9,0c4.8,0,9.7-0.4,14.3-1.2V54.3c-4.6,0.7-9.6,1.1-14.3,1.1
		C173.6,55.6,173.2,55.6,172.9,55.6z"/>
	<path class="st4" d="M173.8,30.8c-0.4,0-0.7,0-0.9,0v20c0.4,0,0.7,0,0.9,0c4.8,0,9.7-0.4,14.3-1.2c0.4-7.1,9.6-11.5,21.2-13.5
		c0-11.3,0-14.7,0-14.7l0,0C202.3,27.6,187.9,30.8,173.8,30.8z"/>
	<path class="st5" d="M225.1,119.8V140c0.4,0,0.7,0,0.9,0c19.6,0,35.6-6.4,35.6-14.2c0-1.4,0-7.8,0-14.9c-8.1,6-22.3,8.8-35.6,8.8
		C225.8,119.8,225.4,119.8,225.1,119.8z"/>
	<path class="st5" d="M225.1,93.8V115c0.4,0,0.7,0,0.9,0c14.7,0,29.9-3.7,35.6-10.6c0-6.7,0-12,0-19.6c-8.1,6-22.3,8.8-35.6,8.8
		C225.8,93.8,225.4,93.8,225.1,93.8z"/>
	<path class="st5" d="M226.2,69.2c-0.4,0-0.7,0-0.9,0v20c0.4,0,0.7,0,0.9,0c14.7,0,29.9-3.7,35.6-10.6c0-14.9,0-18.9,0-18.9l0,0
		C254.5,65.8,240.3,69.2,226.2,69.2z"/>
</g>
</svg>
